<?xml version="1.0" encoding="UTF-8" standalone="no"?><!-- Generator: Gravit.io --><svg xmlns="http://www.w3.org/2000/svg" xmlns:xlink="http://www.w3.org/1999/xlink" style="isolation:isolate" viewBox="0 0 512 512" width="512pt" height="512pt"><defs><clipPath id="_clipPath_5SoxwPdevoauIq8YUH54b0xRUfz655co"><rect width="512" height="512"/></clipPath></defs><g clip-path="url(#_clipPath_5SoxwPdevoauIq8YUH54b0xRUfz655co)"><circle vector-effect="non-scaling-stroke" cx="258.4361873734813" cy="259.8140962288684" r="237.21498555117523" fill="rgb(7,96,254)"/><path d=" M 253.369 268.273 L 253.369 351.352 L 253.369 351.352 Q 253.369 360.085 251.708 369.762 L 251.708 369.762 L 251.708 369.762 Q 250.048 379.439 246.533 388.998 L 246.533 388.998 L 246.533 388.998 Q 243.017 398.557 237.451 407.289 L 237.451 407.289 L 237.451 407.289 Q 231.884 416.022 223.974 422.749 L 223.974 422.749 L 223.974 422.749 Q 216.064 429.475 205.712 433.488 L 205.712 433.488 L 205.712 433.488 Q 195.361 437.5 182.275 437.5 L 182.275 437.5 L 90.673 437.5 L 90.673 437.5 Q 83.447 437.5 75.439 435.494 L 75.439 435.494 L 75.439 435.494 Q 67.431 433.488 59.521 429.239 L 59.521 429.239 L 59.521 429.239 Q 51.611 424.991 44.384 418.264 L 44.384 418.264 L 44.384 418.264 Q 37.158 411.538 31.591 401.979 L 31.591 401.979 L 31.591 401.979 Q 26.025 392.42 22.704 379.793 L 22.704 379.793 L 22.704 379.793 Q 19.384 367.166 19.384 351.352 L 19.384 351.352 L 19.384 74.5 L 70.165 74.5 L 70.165 351.352 L 70.165 351.352 Q 70.165 362.681 76.025 369.408 L 76.025 369.408 L 76.025 369.408 Q 81.884 376.135 90.673 376.135 L 90.673 376.135 L 182.275 376.135 L 182.275 376.135 Q 191.845 376.135 197.216 369.29 L 197.216 369.29 L 197.216 369.29 Q 202.587 362.445 202.587 351.352 L 202.587 351.352 L 202.587 268.273 L 202.587 268.273 Q 202.587 256.708 196.923 250.217 L 196.923 250.217 L 196.923 250.217 Q 191.259 243.727 182.275 243.727 L 182.275 243.727 L 90.673 243.727 L 90.673 182.362 L 182.275 182.362 L 182.275 182.362 Q 189.501 182.362 197.509 184.368 L 197.509 184.368 L 197.509 184.368 Q 205.517 186.374 213.427 190.622 L 213.427 190.622 L 213.427 190.622 Q 221.337 194.871 228.564 201.597 L 228.564 201.597 L 228.564 201.597 Q 235.79 208.324 241.259 217.883 L 241.259 217.883 L 241.259 217.883 Q 246.728 227.441 250.048 239.951 L 250.048 239.951 L 250.048 239.951 Q 253.369 252.46 253.369 268.273 L 253.369 268.273 Z " fill="rgb(21,20,20)"/><path d=" M 492.616 176.735 L 492.616 342.893 L 492.616 342.893 Q 492.616 366.732 485.487 383.135 L 485.487 383.135 L 485.487 383.135 Q 478.358 399.538 467.714 409.805 L 467.714 409.805 L 467.714 409.805 Q 457.069 420.072 444.569 424.557 L 444.569 424.557 L 444.569 424.557 Q 432.069 429.041 421.327 429.041 L 421.327 429.041 L 258.436 429.041 L 258.436 367.676 L 421.327 367.676 L 421.327 367.676 Q 431.678 367.676 436.659 361.303 L 436.659 361.303 L 436.659 361.303 Q 441.639 354.93 441.639 342.893 L 441.639 342.893 L 441.639 290.733 L 258.436 290.733 L 258.436 228.895 L 441.639 228.895 L 441.639 177.207 L 441.639 177.207 Q 441.639 151.953 421.327 151.953 L 421.327 151.953 L 258.436 151.953 L 258.436 90.587 L 421.327 90.587 L 421.327 90.587 Q 434.413 90.587 444.764 94.6 L 444.764 94.6 L 444.764 94.6 Q 455.116 98.612 463.026 105.338 L 463.026 105.338 L 463.026 105.338 Q 470.936 112.065 476.6 120.798 L 476.6 120.798 L 476.6 120.798 Q 482.264 129.531 485.78 139.089 L 485.78 139.089 L 485.78 139.089 Q 489.296 148.648 490.956 158.443 L 490.956 158.443 L 490.956 158.443 Q 492.616 168.238 492.616 176.735 L 492.616 176.735 Z " fill="rgb(21,21,21)"/></g></svg>